#define NOTE_B0  31
#define NOTE_C1  33
#define NOTE_CS1 35
#define NOTE_D1  37
#define NOTE_DS1 39
#define NOTE_E1  41
#define NOTE_F1  44
#define NOTE_FS1 46
#define NOTE_G1  49
#define NOTE_GS1 52
#define NOTE_A1  55
#define NOTE_AS1 58
#define NOTE_B1  62
#define NOTE_C2  65
#define NOTE_CS2 69
#define NOTE_D2  73
#define NOTE_DS2 78
#define NOTE_E2  82
#define NOTE_F2  87
#define NOTE_FS2 93
#define NOTE_G2  98
#define NOTE_GS2 104
#define NOTE_A2  110
#define NOTE_AS2 117
#define NOTE_B2  123
#define NOTE_C3  131
#define NOTE_CS3 139
#define NOTE_D3  147
#define NOTE_DS3 156
#define NOTE_E3  165
#define NOTE_F3  175
#define NOTE_FS3 185
#define NOTE_G3  196
#define NOTE_GS3 208
#define NOTE_A3  220
#define NOTE_AS3 233
#define NOTE_B3  247
#define NOTE_C4  262
#define NOTE_CS4 277
#define NOTE_D4  294
#define NOTE_DS4 311
#define NOTE_E4  330
#define NOTE_F4  349
#define NOTE_FS4 370
#define NOTE_G4  392
#define NOTE_GS4 415
#define NOTE_A4  440
#define NOTE_AS4 466
#define NOTE_B4  494
#define NOTE_C5  523
#define NOTE_CS5 554
#define NOTE_D5  587
#define NOTE_DS5 622
#define NOTE_E5  659
#define NOTE_F5  698
#define NOTE_FS5 740
#define NOTE_G5  784
#define NOTE_GS5 831
#define NOTE_A5  880
#define NOTE_AS5 932
#define NOTE_B5  988
#define NOTE_C6  1047
#define NOTE_CS6 1109
#define NOTE_D6  1175
#define NOTE_DS6 1245
#define NOTE_E6  1319
#define NOTE_F6  1397
#define NOTE_FS6 1480
#define NOTE_G6  1568
#define NOTE_GS6 1661
#define NOTE_A6  1760
#define NOTE_AS6 1865
#define NOTE_B6  1976
#define NOTE_C7  2093
#define NOTE_CS7 2217
#define NOTE_D7  2349
#define NOTE_DS7 2489
#define NOTE_E7  2637
#define NOTE_F7  2794
#define NOTE_FS7 2960
#define NOTE_G7  3136
#define NOTE_GS7 3322
#define NOTE_A7  3520
#define NOTE_AS7 3729
#define NOTE_B7  3951
#define NOTE_C8  4186
#define NOTE_CS8 4435
#define NOTE_D8  4699
#define NOTE_DS8 4978
#define REST      0



struct Music{
    int tempo;
    int* melody;
    int notes;
    int pointer;
    float tune;
};

// change this to make the song slower or faster

// notes of the moledy followed by the duration.
// a 4 means a quarter note, 8 an eighteenth , 16 sixteenth, so on
// !!negative numbers are used to represent dotted notes,
// so -4 means a dotted quarter note, that is, a quarter plus an eighteenth!!
static int Cannon_melody[] = {

  // Cannon in D - Pachelbel
  // Score available at https://musescore.com/user/4710311/scores/1975521
  // C F
  NOTE_FS4,2, NOTE_E4,2,
  NOTE_D4,2, NOTE_CS4,2,
  NOTE_B3,2, NOTE_A3,2,
  NOTE_B3,2, NOTE_CS4,2,
  NOTE_FS4,2, NOTE_E4,2,
  NOTE_D4,2, NOTE_CS4,2,
  NOTE_B3,2, NOTE_A3,2,
  NOTE_B3,2, NOTE_CS4,2,
  NOTE_D4,2, NOTE_CS4,2,
  NOTE_B3,2, NOTE_A3,2,
  NOTE_G3,2, NOTE_FS3,2,
  NOTE_G3,2, NOTE_A3,2,

  NOTE_D4,4, NOTE_FS4,8, NOTE_G4,8, NOTE_A4,4, NOTE_FS4,8, NOTE_G4,8, 
  NOTE_A4,4, NOTE_B3,8, NOTE_CS4,8, NOTE_D4,8, NOTE_E4,8, NOTE_FS4,8, NOTE_G4,8, 
  NOTE_FS4,4, NOTE_D4,8, NOTE_E4,8, NOTE_FS4,4, NOTE_FS3,8, NOTE_G3,8,
  NOTE_A3,8, NOTE_G3,8, NOTE_FS3,8, NOTE_G3,8, NOTE_A3,2,
  NOTE_G3,4, NOTE_B3,8, NOTE_A3,8, NOTE_G3,4, NOTE_FS3,8, NOTE_E3,8, 
  NOTE_FS3,4, NOTE_D3,8, NOTE_E3,8, NOTE_FS3,8, NOTE_G3,8, NOTE_A3,8, NOTE_B3,8,

  NOTE_G3,4, NOTE_B3,8, NOTE_A3,8, NOTE_B3,4, NOTE_CS4,8, NOTE_D4,8,
  NOTE_A3,8, NOTE_B3,8, NOTE_CS4,8, NOTE_D4,8, NOTE_E4,8, NOTE_FS4,8, NOTE_G4,8, NOTE_A4,2,
  NOTE_A4,4, NOTE_FS4,8, NOTE_G4,8, NOTE_A4,4,
  NOTE_FS4,8, NOTE_G4,8, NOTE_A4,8, NOTE_A3,8, NOTE_B3,8, NOTE_CS4,8,
  NOTE_D4,8, NOTE_E4,8, NOTE_FS4,8, NOTE_G4,8, NOTE_FS4,4, NOTE_D4,8, NOTE_E4,8,
  NOTE_FS4,8, NOTE_CS4,8, NOTE_A3,8, NOTE_A3,8,

  NOTE_CS4,4, NOTE_B3,4, NOTE_D4,8, NOTE_CS4,8, NOTE_B3,4,
  NOTE_A3,8, NOTE_G3,8, NOTE_A3,4, NOTE_D3,8, NOTE_E3,8, NOTE_FS3,8, NOTE_G3,8,
  NOTE_A3,8, NOTE_B3,4, NOTE_G3,4, NOTE_B3,8, NOTE_A3,8, NOTE_B3,4,
  NOTE_CS4,8, NOTE_D4,8, NOTE_A3,8, NOTE_B3,8, NOTE_CS4,8, NOTE_D4,8, NOTE_E4,8,
  NOTE_FS4,8, NOTE_G4,8, NOTE_A4,2,  
   
};

static struct Music cannon = {
    .tempo = 100,
    .melody = Cannon_melody,
    .notes = sizeof(Cannon_melody)/ sizeof(Cannon_melody[0]) / 2,
    .pointer = 0,
    .tune = 2
};






// notes of the moledy followed by the duration.
// a 4 means a quarter note, 8 an eighteenth , 16 sixteenth, so on
// !!negative numbers are used to represent dotted notes,
// so -4 means a dotted quarter note, that is, a quarter plus an eighteenth!!
static int Nokia_melody[] = {

  // Nokia Ringtone 
  // Score available at https://musescore.com/user/29944637/scores/5266155
  
  NOTE_E5, 8, NOTE_D5, 8, NOTE_FS4, 4, NOTE_GS4, 4, 
  NOTE_CS5, 8, NOTE_B4, 8, NOTE_D4, 4, NOTE_E4, 4, 
  NOTE_B4, 8, NOTE_A4, 8, NOTE_CS4, 4, NOTE_E4, 4,
  NOTE_A4, 2, 
};


static struct Music nokia = {
    .tempo = 130,
    .melody = Nokia_melody,
    .notes = sizeof(Nokia_melody)/ sizeof(Nokia_melody[0]) / 2,
    .pointer = 0,
    .tune = 1.5
};


static int mario_melody[] = {

  // Super Mario Bros theme
  // Score available at https://musescore.com/user/2123/scores/2145
  // Theme by Koji Kondo
  
  
  NOTE_E5,8, NOTE_E5,8, REST,8, NOTE_E5,8, REST,8, NOTE_C5,8, NOTE_E5,8, //1
  NOTE_G5,4, REST,4, NOTE_G4,8, REST,4, 
  NOTE_C5,-4, NOTE_G4,8, REST,4, NOTE_E4,-4, // 3
  NOTE_A4,4, NOTE_B4,4, NOTE_AS4,8, NOTE_A4,4,
  NOTE_G4,-8, NOTE_E5,-8, NOTE_G5,-8, NOTE_A5,4, NOTE_F5,8, NOTE_G5,8,
  REST,8, NOTE_E5,4,NOTE_C5,8, NOTE_D5,8, NOTE_B4,-4,
  NOTE_C5,-4, NOTE_G4,8, REST,4, NOTE_E4,-4, // repeats from 3
  NOTE_A4,4, NOTE_B4,4, NOTE_AS4,8, NOTE_A4,4,
  NOTE_G4,-8, NOTE_E5,-8, NOTE_G5,-8, NOTE_A5,4, NOTE_F5,8, NOTE_G5,8,
  REST,8, NOTE_E5,4,NOTE_C5,8, NOTE_D5,8, NOTE_B4,-4,

  
  REST,4, NOTE_G5,8, NOTE_FS5,8, NOTE_F5,8, NOTE_DS5,4, NOTE_E5,8,//7
  REST,8, NOTE_GS4,8, NOTE_A4,8, NOTE_C4,8, REST,8, NOTE_A4,8, NOTE_C5,8, NOTE_D5,8,
  REST,4, NOTE_DS5,4, REST,8, NOTE_D5,-4,
  NOTE_C5,2, REST,2,

  REST,4, NOTE_G5,8, NOTE_FS5,8, NOTE_F5,8, NOTE_DS5,4, NOTE_E5,8,//repeats from 7
  REST,8, NOTE_GS4,8, NOTE_A4,8, NOTE_C4,8, REST,8, NOTE_A4,8, NOTE_C5,8, NOTE_D5,8,
  REST,4, NOTE_DS5,4, REST,8, NOTE_D5,-4,
  NOTE_C5,2, REST,2,

  NOTE_C5,8, NOTE_C5,4, NOTE_C5,8, REST,8, NOTE_C5,8, NOTE_D5,4,//11
  NOTE_E5,8, NOTE_C5,4, NOTE_A4,8, NOTE_G4,2,

  NOTE_C5,8, NOTE_C5,4, NOTE_C5,8, REST,8, NOTE_C5,8, NOTE_D5,8, NOTE_E5,8,//13
  REST,1, 
  NOTE_C5,8, NOTE_C5,4, NOTE_C5,8, REST,8, NOTE_C5,8, NOTE_D5,4,
  NOTE_E5,8, NOTE_C5,4, NOTE_A4,8, NOTE_G4,2,
  NOTE_E5,8, NOTE_E5,8, REST,8, NOTE_E5,8, REST,8, NOTE_C5,8, NOTE_E5,4,
  NOTE_G5,4, REST,4, NOTE_G4,4, REST,4, 
  NOTE_C5,-4, NOTE_G4,8, REST,4, NOTE_E4,-4, // 19
  
  NOTE_A4,4, NOTE_B4,4, NOTE_AS4,8, NOTE_A4,4,
  NOTE_G4,-8, NOTE_E5,-8, NOTE_G5,-8, NOTE_A5,4, NOTE_F5,8, NOTE_G5,8,
  REST,8, NOTE_E5,4, NOTE_C5,8, NOTE_D5,8, NOTE_B4,-4,

  NOTE_C5,-4, NOTE_G4,8, REST,4, NOTE_E4,-4, // repeats from 19
  NOTE_A4,4, NOTE_B4,4, NOTE_AS4,8, NOTE_A4,4,
  NOTE_G4,-8, NOTE_E5,-8, NOTE_G5,-8, NOTE_A5,4, NOTE_F5,8, NOTE_G5,8,
  REST,8, NOTE_E5,4, NOTE_C5,8, NOTE_D5,8, NOTE_B4,-4,

  NOTE_E5,8, NOTE_C5,4, NOTE_G4,8, REST,4, NOTE_GS4,4,//23
  NOTE_A4,8, NOTE_F5,4, NOTE_F5,8, NOTE_A4,2,
  NOTE_D5,-8, NOTE_A5,-8, NOTE_A5,-8, NOTE_A5,-8, NOTE_G5,-8, NOTE_F5,-8,
  
  NOTE_E5,8, NOTE_C5,4, NOTE_A4,8, NOTE_G4,2, //26
  NOTE_E5,8, NOTE_C5,4, NOTE_G4,8, REST,4, NOTE_GS4,4,
  NOTE_A4,8, NOTE_F5,4, NOTE_F5,8, NOTE_A4,2,
  NOTE_B4,8, NOTE_F5,4, NOTE_F5,8, NOTE_F5,-8, NOTE_E5,-8, NOTE_D5,-8,
  NOTE_C5,8, NOTE_E4,4, NOTE_E4,8, NOTE_C4,2,

  NOTE_E5,8, NOTE_C5,4, NOTE_G4,8, REST,4, NOTE_GS4,4,//repeats from 23
  NOTE_A4,8, NOTE_F5,4, NOTE_F5,8, NOTE_A4,2,
  NOTE_D5,-8, NOTE_A5,-8, NOTE_A5,-8, NOTE_A5,-8, NOTE_G5,-8, NOTE_F5,-8,
  
  NOTE_E5,8, NOTE_C5,4, NOTE_A4,8, NOTE_G4,2, //26
  NOTE_E5,8, NOTE_C5,4, NOTE_G4,8, REST,4, NOTE_GS4,4,
  NOTE_A4,8, NOTE_F5,4, NOTE_F5,8, NOTE_A4,2,
  NOTE_B4,8, NOTE_F5,4, NOTE_F5,8, NOTE_F5,-8, NOTE_E5,-8, NOTE_D5,-8,
  NOTE_C5,8, NOTE_E4,4, NOTE_E4,8, NOTE_C4,2,
  NOTE_C5,8, NOTE_C5,4, NOTE_C5,8, REST,8, NOTE_C5,8, NOTE_D5,8, NOTE_E5,8,
  REST,1,

  NOTE_C5,8, NOTE_C5,4, NOTE_C5,8, REST,8, NOTE_C5,8, NOTE_D5,4, //33
  NOTE_E5,8, NOTE_C5,4, NOTE_A4,8, NOTE_G4,2,
  NOTE_E5,8, NOTE_E5,8, REST,8, NOTE_E5,8, REST,8, NOTE_C5,8, NOTE_E5,4,
  NOTE_G5,4, REST,4, NOTE_G4,4, REST,4, 
  NOTE_E5,8, NOTE_C5,4, NOTE_G4,8, REST,4, NOTE_GS4,4,
  NOTE_A4,8, NOTE_F5,4, NOTE_F5,8, NOTE_A4,2,
  NOTE_D5,-8, NOTE_A5,-8, NOTE_A5,-8, NOTE_A5,-8, NOTE_G5,-8, NOTE_F5,-8,
  
  NOTE_E5,8, NOTE_C5,4, NOTE_A4,8, NOTE_G4,2, //40
  NOTE_E5,8, NOTE_C5,4, NOTE_G4,8, REST,4, NOTE_GS4,4,
  NOTE_A4,8, NOTE_F5,4, NOTE_F5,8, NOTE_A4,2,
  NOTE_B4,8, NOTE_F5,4, NOTE_F5,8, NOTE_F5,-8, NOTE_E5,-8, NOTE_D5,-8,
  NOTE_C5,8, NOTE_E4,4, NOTE_E4,8, NOTE_C4,2,
  
  //game over sound
  NOTE_C5,-4, NOTE_G4,-4, NOTE_E4,4, //45
  NOTE_A4,-8, NOTE_B4,-8, NOTE_A4,-8, NOTE_GS4,-8, NOTE_AS4,-8, NOTE_GS4,-8,
  NOTE_G4,8, NOTE_D4,8, NOTE_E4,-2,  

};


static struct Music mario = {
    .tempo = 140,
    .melody = mario_melody,
    .notes = sizeof(mario_melody)/ sizeof(mario_melody[0]) / 2,
    .pointer = 0,
    .tune = 1
};


static int star_war_melody[] = {
  
  // Dart Vader theme (Imperial March) - Star wars 
  // Score available at https://musescore.com/user/202909/scores/1141521
  // The tenor saxophone part was used
  
  NOTE_AS4,8, NOTE_AS4,8, NOTE_AS4,8,//1
  NOTE_F5,2, NOTE_C6,2,
  NOTE_AS5,8, NOTE_A5,8, NOTE_G5,8, NOTE_F6,2, NOTE_C6,4,  
  NOTE_AS5,8, NOTE_A5,8, NOTE_G5,8, NOTE_F6,2, NOTE_C6,4,  
  NOTE_AS5,8, NOTE_A5,8, NOTE_AS5,8, NOTE_G5,2, NOTE_C5,8, NOTE_C5,8, NOTE_C5,8,
  NOTE_F5,2, NOTE_C6,2,
  NOTE_AS5,8, NOTE_A5,8, NOTE_G5,8, NOTE_F6,2, NOTE_C6,4,  
  
  NOTE_AS5,8, NOTE_A5,8, NOTE_G5,8, NOTE_F6,2, NOTE_C6,4, //8  
  NOTE_AS5,8, NOTE_A5,8, NOTE_AS5,8, NOTE_G5,2, NOTE_C5,-8, NOTE_C5,16, 
  NOTE_D5,-4, NOTE_D5,8, NOTE_AS5,8, NOTE_A5,8, NOTE_G5,8, NOTE_F5,8,
  NOTE_F5,8, NOTE_G5,8, NOTE_A5,8, NOTE_G5,4, NOTE_D5,8, NOTE_E5,4,NOTE_C5,-8, NOTE_C5,16,
  NOTE_D5,-4, NOTE_D5,8, NOTE_AS5,8, NOTE_A5,8, NOTE_G5,8, NOTE_F5,8,
  
  NOTE_C6,-8, NOTE_G5,16, NOTE_G5,2, REST,8, NOTE_C5,8,//13
  NOTE_D5,-4, NOTE_D5,8, NOTE_AS5,8, NOTE_A5,8, NOTE_G5,8, NOTE_F5,8,
  NOTE_F5,8, NOTE_G5,8, NOTE_A5,8, NOTE_G5,4, NOTE_D5,8, NOTE_E5,4,NOTE_C6,-8, NOTE_C6,16,
  NOTE_F6,4, NOTE_DS6,8, NOTE_CS6,4, NOTE_C6,8, NOTE_AS5,4, NOTE_GS5,8, NOTE_G5,4, NOTE_F5,8,
  NOTE_C6,1
  
};

static struct Music star_war = {
    .tempo = 108,
    .melody = star_war_melody,
    .notes = sizeof(star_war_melody)/ sizeof(star_war_melody[0]) / 2,
    .pointer = 0,
    .tune = 1
};



static int lion_melody[] = {

  // The Lion Sleeps Tonight
  // Score available at https://musescore.com/user/18545446/scores/5061407

  NOTE_F4, 4, NOTE_G4, 4, NOTE_A4, 8, NOTE_G4, 4, NOTE_A4, 8, //1
  NOTE_AS4, 4, NOTE_A4, 4, NOTE_G4, 8, NOTE_F4, 4, NOTE_G4, 8,
  NOTE_A4, 4, NOTE_C4, 8, NOTE_C4, 4, NOTE_C4, 8, NOTE_C4, 4,
  NOTE_C4, 1, //1st ending

  NOTE_F4, 4, NOTE_G4, 4, NOTE_A4, 8, NOTE_G4, 4, NOTE_A4, 8, //repeats from 1
  NOTE_AS4, 4, NOTE_A4, 4, NOTE_G4, 8, NOTE_F4, 4, NOTE_G4, 8,
  NOTE_A4, 4, NOTE_C4, 8, NOTE_C4, 4, NOTE_C4, 8, NOTE_C4, 4,
  NOTE_C4, -2,  REST, -8, NOTE_A4, 16, //2nd ending

  NOTE_A4, -8, NOTE_A4, 16, NOTE_A4, -8, NOTE_A4, 16, NOTE_A4, -8, NOTE_A4, 16, NOTE_A4, -8, NOTE_A4, 16, //6
  NOTE_AS4, -8, NOTE_AS4, 16, NOTE_AS4, -8, NOTE_AS4, 16, NOTE_AS4, -8, NOTE_AS4, 16, NOTE_AS4, -8, NOTE_AS4, 16,
  NOTE_A4, -8, NOTE_A4, 16, NOTE_A4, -8, NOTE_A4, 16, NOTE_A4, -8, NOTE_A4, 16, NOTE_A4, -8, NOTE_A4, 16,
  NOTE_G4, -8, NOTE_G4, 16, NOTE_G4, -8, NOTE_G4, 16, NOTE_G4, -8, NOTE_G4, 16, NOTE_G4, -8, NOTE_G4, 16,

  NOTE_A4, -8, NOTE_A4, 16, NOTE_A4, -8, NOTE_A4, 16, NOTE_A4, -8, NOTE_A4, 16, NOTE_A4, -8, NOTE_A4, 16, //10
  NOTE_AS4, -8, NOTE_AS4, 16, NOTE_AS4, -8, NOTE_AS4, 16, NOTE_AS4, -8, NOTE_AS4, 16, NOTE_AS4, -8, NOTE_AS4, 16,
  NOTE_A4, -8, NOTE_A4, 16, NOTE_A4, -8, NOTE_A4, 16, NOTE_A4, -8, NOTE_A4, 16, NOTE_A4, -8, NOTE_A4, 16,
  NOTE_G4, -8, NOTE_G4, 16, NOTE_G4, -8, NOTE_G4, 16, NOTE_G4, -8, NOTE_G4, 16, NOTE_G4, -8, NOTE_G4, 16,

  NOTE_F4, 4, NOTE_G4, 4, NOTE_A4, 8, NOTE_G4, 4, NOTE_A4, 8, //14
  NOTE_AS4, 4, NOTE_A4, 4, NOTE_G4, 8, NOTE_F4, 4, NOTE_G4, 8,
  NOTE_A4, 4, NOTE_G4, 4, NOTE_F4, 4, NOTE_A4, 4,
  NOTE_G4, 1,
  NOTE_C5, 4, NOTE_A4, 4, NOTE_G4, 8, NOTE_A4, 4, NOTE_C5, 8,
  NOTE_AS4, 4, NOTE_A4, 4, NOTE_G4, 8, NOTE_F4, 4, NOTE_G4, 8,
  NOTE_A4, 4, NOTE_G4, 4, NOTE_F4, 4, NOTE_A4, 4,
  NOTE_G4, 1,

  NOTE_C5, 1, //22
  NOTE_C5, 4, NOTE_AS4, 8, NOTE_C5, 8, NOTE_AS4, 2,
  NOTE_A4, 4, NOTE_C4, 8, NOTE_C4, 4, NOTE_C4, 8, NOTE_C4, 4,
  NOTE_C4, 1,

  REST, 4, NOTE_A4, 8, NOTE_G4, 8, NOTE_F4, 8, NOTE_E4, 8, NOTE_D4, 8, NOTE_C4, 8, 
  NOTE_D4, 1,
  REST, 4, NOTE_A4, 8, NOTE_G4, 8, NOTE_F4, 8, NOTE_E4, 8, NOTE_D4, 8, NOTE_C4, 8, 
  NOTE_D4, 1,

  NOTE_F4, 4, NOTE_G4, 4, NOTE_A4, 8, NOTE_G4, 4, NOTE_A4, 8, //repeats from 14
  NOTE_AS4, 4, NOTE_A4, 4, NOTE_G4, 8, NOTE_F4, 4, NOTE_G4, 8,
  NOTE_A4, 4, NOTE_G4, 4, NOTE_F4, 4, NOTE_A4, 4,
  NOTE_G4, 1,
  NOTE_C5, 4, NOTE_A4, 4, NOTE_G4, 8, NOTE_A4, 4, NOTE_C5, 8,
  NOTE_AS4, 4, NOTE_A4, 4, NOTE_G4, 8, NOTE_F4, 4, NOTE_G4, 8,
  NOTE_A4, 4, NOTE_G4, 4, NOTE_F4, 4, NOTE_A4, 4,
  NOTE_G4, 1,

  NOTE_C5, 1, //22
  NOTE_C5, 4, NOTE_AS4, 8, NOTE_C5, 8, NOTE_AS4, 2,
  NOTE_A4, 4, NOTE_C4, 8, NOTE_C4, 4, NOTE_C4, 8, NOTE_C4, 4,
  NOTE_C4, 1,

  REST, 4, NOTE_A4, 8, NOTE_G4, 8, NOTE_F4, 8, NOTE_E4, 8, NOTE_D4, 8, NOTE_C4, 8, 
  NOTE_D4, 1,
  REST, 4, NOTE_A4, 8, NOTE_G4, 8, NOTE_F4, 8, NOTE_E4, 8, NOTE_D4, 8, NOTE_C4, 8, 
  NOTE_D4, 1,

  NOTE_F4, 4, NOTE_G4, 4, NOTE_A4, 8, NOTE_G4, 4, NOTE_A4, 8, //30
  NOTE_AS4, 4, NOTE_A4, 4, NOTE_G4, 8, NOTE_F4, 4, NOTE_G4, 8,
  NOTE_A4, 4, NOTE_C4, 8, NOTE_C4, 4, NOTE_C4, 8, NOTE_C4, 4,
  NOTE_C4, 1, 

  NOTE_F4, 4, NOTE_G4, 4, NOTE_A4, 8, NOTE_G4, 4, NOTE_A4, 8, //repeats from 14 (again)
  NOTE_AS4, 4, NOTE_A4, 4, NOTE_G4, 8, NOTE_F4, 4, NOTE_G4, 8,
  NOTE_A4, 4, NOTE_G4, 4, NOTE_F4, 4, NOTE_A4, 4,
  NOTE_G4, 1,
  NOTE_C5, 4, NOTE_A4, 4, NOTE_G4, 8, NOTE_A4, 4, NOTE_C5, 8,
  NOTE_AS4, 4, NOTE_A4, 4, NOTE_G4, 8, NOTE_F4, 4, NOTE_G4, 8,
  NOTE_A4, 4, NOTE_G4, 4, NOTE_F4, 4, NOTE_A4, 4,
  NOTE_G4, 1,

  NOTE_C5, 1, //22
  NOTE_C5, 4, NOTE_AS4, 8, NOTE_C5, 8, NOTE_AS4, 2,
  NOTE_A4, 4, NOTE_C4, 8, NOTE_C4, 4, NOTE_C4, 8, NOTE_C4, 4,
  NOTE_C4, 1,

  REST, 4, NOTE_A4, 8, NOTE_G4, 8, NOTE_F4, 8, NOTE_E4, 8, NOTE_D4, 8, NOTE_C4, 8, 
  NOTE_D4, 1,
  REST, 4, NOTE_A4, 8, NOTE_G4, 8, NOTE_F4, 8, NOTE_E4, 8, NOTE_D4, 8, NOTE_C4, 8, 
  NOTE_D4, 1,

  NOTE_F4, 4, NOTE_G4, 4, NOTE_A4, 8, NOTE_G4, 4, NOTE_A4, 8, //30
  NOTE_AS4, 4, NOTE_A4, 4, NOTE_G4, 8, NOTE_F4, 4, NOTE_G4, 8,
  NOTE_A4, 4, NOTE_C4, 8, NOTE_C4, 4, NOTE_C4, 8, NOTE_C4, 4,
  NOTE_C4, 1, 
  
};



static struct Music lion = {
    .tempo = 122,
    .melody = lion_melody,
    .notes = sizeof(lion_melody)/ sizeof(lion_melody[0]) / 2,
    .pointer = 0,
    .tune = 1
};
